<svg xmlns="http://www.w3.org/2000/svg" width="498" height="501" style="shape-rendering:geometricPrecision;text-rendering:geometricPrecision;image-rendering:optimizeQuality;fill-rule:evenodd;clip-rule:evenodd"><path fill="#fefffe" d="M246.5 19.5c2.427.023 4.76.523 7 1.5a3217.128 3217.128 0 0 0 68 67l93 1c3.063 1.066 4.563 3.233 4.5 6.5.21 27.883.043 54.717-.5 80.5a42.36 42.36 0 0 1 1.5 8.5 2930.69 2930.69 0 0 0 64 65c2.086 4.167 1.753 8.167-1 12a2846.216 2846.216 0 0 0-63 64 544.301 544.301 0 0 1-1.5 32.5c.431 18.608.764 36.275 1 53 .242 4.657-1.091 8.657-4 12-31.394.022-62.728.689-94 2a3132.413 3132.413 0 0 0-67 66c-4 3.333-8 3.333-12 0a3119.654 3119.654 0 0 0-67-66 2282.173 2282.173 0 0 0-94-2 4.458 4.458 0 0 0-2-1.5 429.568 429.568 0 0 1-2-12c.536-25.743.87-51.243 1-76.5l-1.5-7.5a2937.247 2937.247 0 0 0-64-65c-1.899-3.636-1.899-7.303 0-11L76.5 186a35.874 35.874 0 0 0 2-10c.296-27.046-.038-53.713-1-80 .473-2.86 1.806-5.194 4-7l95-1a2249.697 2249.697 0 0 1 70-68.5Zm-21 96c9.541-.556 17.874 2.278 25 8.5a1368.133 1368.133 0 0 1-52.5 31.5c-2.967-21.745 6.2-35.078 27.5-40Zm30 16c3.442 2.839 5.942 6.506 7.5 11-1.145 10.223 1.522 19.223 8 27 .667 1.333.667 2.667 0 4a18.38 18.38 0 0 1-7 4c.262 7.89-2.571 14.39-8.5 19.5-4.827 1.684-9.66 1.85-14.5.5-3.524.857-5.691 3.024-6.5 6.5a1184.354 1184.354 0 0 1 31 48.5c2.656 4.829 6.656 6.662 12 5.5 10.332-5.333 19.165-12.499 26.5-21.5 1.811-7.952 4.978-15.285 9.5-22 1.571-1.915 3.571-2.915 6-3a40.856 40.856 0 0 0-2 12c3.802-1.279 6.969-3.612 9.5-7a114.423 114.423 0 0 0 11-21c3.724-1.542 5.557-.209 5.5 4-.721 12.225-4.221 23.558-10.5 34a714.52 714.52 0 0 0-37.5 41.5l-18 15a104.387 104.387 0 0 1-10.5 4.5c-6.234-1.903-11.734-5.07-16.5-9.5a1957.512 1957.512 0 0 1-37-37.5c-4.584-1.528-6.084.138-4.5 5a1046.375 1046.375 0 0 1 35 42 75.983 75.983 0 0 1-.5 17 27.86 27.86 0 0 0 1.5 9 683.229 683.229 0 0 0 37.5 18.5c11.573 5.571 21.74 13.071 30.5 22.5 6.997 10.893 5.831 20.727-3.5 29.5a54.628 54.628 0 0 0-7 2c-34.494.312-68.994.479-103.5.5-14.65.16-29.15-.34-43.5-1.5l11.5-11.5a174.575 174.575 0 0 1 5-14c1.062-2.564 2.896-4.231 5.5-5 12.599 6.477 25.933 10.644 40 12.5a592.349 592.349 0 0 0 37.5 3.5c4.934.744 6.434-1.089 4.5-5.5a661.211 661.211 0 0 1-45-7c-11.139-2.076-21.473-6.076-31-12-7.225-6.179-10.892-14.013-11-23.5a1556.552 1556.552 0 0 0 11.5-101c3.239-12.475 9.573-23.141 19-32 6.256-9.919 5.922-19.586-1-29-.667-1.333-.667-2.667 0-4a454.82 454.82 0 0 0 53.5-32Z" style="opacity:.98"/></svg>