<?xml version="1.0" standalone="no"?>
<!DOCTYPE svg PUBLIC "-//W3C//DTD SVG 20010904//EN"
 "http://www.w3.org/TR/2001/REC-SVG-20010904/DTD/svg10.dtd">
<svg version="1.0" xmlns="http://www.w3.org/2000/svg"
 width="524.000000pt" height="524.000000pt" viewBox="0 0 524.000000 524.000000"
 preserveAspectRatio="xMidYMid meet">

<g transform="translate(0.000000,524.000000) scale(0.100000,-0.100000)"
fill="#027435" stroke="none">
<path d="M2210 4608 l-354 -358 -558 0 -558 0 0 -522 0 -523 -97 -100 c-53
-55 -214 -218 -357 -363 l-261 -262 358 -358 357 -357 0 -528 0 -527 558 0
557 0 355 -355 355 -355 355 355 355 355 558 0 557 0 0 528 1 527 85 90 c47
50 206 212 354 360 l268 270 -354 360 -353 360 -1 523 0 522 -557 0 -558 0
-355 358 -355 359 -355 -359z m89 -469 c54 -12 141 -49 141 -59 0 -10 -35 -51
-275 -325 l-200 -227 -27 33 c-50 59 -70 132 -66 234 2 71 9 102 29 145 75
161 230 238 398 199z m266 -166 c131 -165 188 -399 127 -519 -39 -76 -93 -106
-214 -119 -85 -9 -90 -13 -78 -55 6 -22 48 -73 123 -149 62 -64 193 -202 291
-308 98 -106 186 -195 196 -198 39 -12 96 27 223 153 71 70 142 146 158 170
17 23 35 42 41 42 9 0 98 -75 191 -160 18 -17 18 -19 -14 -81 -65 -130 -243
-370 -362 -491 -97 -98 -173 -123 -288 -94 -138 35 -392 183 -591 346 -49 39
-88 67 -88 64 0 -24 131 -196 215 -282 l100 -104 5 -160 5 -159 145 -68 c305
-142 534 -285 671 -421 126 -124 159 -203 138 -326 -20 -115 -107 -211 -209
-233 -66 -14 -1937 -15 -1974 -1 -34 12 -43 51 -21 87 9 16 55 53 100 82 104
65 174 126 215 191 66 102 135 115 274 49 98 -46 226 -81 378 -103 122 -18
414 -39 478 -34 l45 3 -70 22 c-38 12 -185 45 -325 73 -287 58 -444 105 -530
160 -150 97 -188 257 -137 570 34 207 44 306 62 620 26 452 45 517 200 681 63
66 86 97 91 124 6 34 3 40 -40 84 l-47 48 33 44 c36 47 299 368 375 457 24 28
48 52 53 52 6 0 30 -26 55 -57z m1402 -283 c19 -38 16 -176 -7 -264 -33 -132
-148 -325 -288 -486 l-31 -35 -84 85 c-68 70 -86 94 -95 132 -16 63 -15 140 4
218 16 70 45 110 80 110 36 0 45 -22 42 -105 -2 -64 0 -79 14 -88 30 -20 65
29 161 223 49 102 102 198 116 213 32 34 70 33 88 -3z"/>
</g>
</svg>
